<?xml version="1.0" encoding="UTF-8"?>
<svg id="Camada_1" data-name="Camada 1" xmlns="http://www.w3.org/2000/svg" viewBox="0 0 1080 1080">
  <defs>
    <style>
      .cls-1 {
        fill: #fff;
      }
    </style>
  </defs>
  <path class="cls-1" d="m408.37,583.16c-15.91-12.05-37.12-18.05-63.22-18.05h-131.81v151.64h129.38c11.97,0,23.32-1.06,34-3.47,10.84-2.37,20.46-6.12,28.57-11.68,8.11-5.33,14.82-12.66,19.7-21.97,4.9-9.23,7.25-21.2,7.25-35.7,0-28.38-7.98-48.52-23.87-60.77Z"/>
  <path class="cls-1" d="m389.38,466.89c13.95-10.17,20.71-27,20.71-50.07,0-12.82-2.25-23.4-6.76-31.61-4.68-8.23-10.86-14.66-18.68-19.15-7.76-4.7-16.52-7.92-26.69-9.68-9.98-1.96-20.46-2.72-31.18-2.72h-113.43v128.67h122.68c21.48,0,39.27-5.08,53.36-15.44Z"/>
  <path class="cls-1" d="m892.42.42H186.99C83.59.42-.23,84.24-.23,187.64v705.43c0,103.4,83.82,187.22,187.22,187.22h705.43c103.4,0,187.22-83.82,187.22-187.22V187.64C1079.64,84.24,995.82.42,892.42.42Zm-215.91,296.37h223.21v54.36h-223.21v-54.36Zm-139.35,426.04c-10.78,20.46-25.46,37.06-43.55,49.86-18.24,12.9-39.19,22.38-62.65,28.55-23.2,6.17-47.29,9.27-71.96,9.27H92.09V259.87h259.62c26.34,0,50.11,2.27,71.84,6.98,21.6,4.57,40.04,12.21,55.62,22.71,15.34,10.49,27.34,24.42,35.94,42,8.39,17.3,12.6,38.98,12.6,64.61,0,27.71-6.29,50.87-18.87,69.39-12.68,18.48-31.3,33.63-56.2,45.41,33.9,9.74,58.99,26.89,75.64,51.28,16.72,24.57,24.91,53.95,24.91,88.4,0,27.91-5.35,51.97-16.03,72.19Zm449.46-85.32h-287.71c0,31.53,10.66,61.38,27.12,77.39,16.4,16.01,40.1,24.07,70.82,24.07,22.09,0,41.19-5.57,57.2-16.72,15.87-11.11,25.52-22.99,29.26-35.33h96.44c-15.5,47.99-39.02,82.25-71.1,102.88-31.71,20.71-70.39,31.04-115.45,31.04-31.41,0-59.67-5.09-85.05-15.11-25.36-10.13-46.56-24.34-64.38-42.86-17.38-18.6-30.88-40.62-40.49-66.45-9.52-25.71-14.31-54.15-14.31-84.99s4.98-57.67,14.72-83.41c9.94-25.81,23.69-48.11,41.76-66.81,18.11-18.79,39.59-33.61,64.61-44.45,25.01-10.8,52.6-16.23,83.15-16.23,33.73,0,63.28,6.5,88.6,19.73,25.24,13.03,45.93,30.71,62.18,52.85,16.25,22.07,27.81,47.33,35.04,75.68,7.17,28.26,9.68,57.83,7.62,88.74Z"/>
  <path class="cls-1" d="m789.9,483.22c-17.5,0-31.98,2.94-43.57,8.94-11.33,5.92-20.63,13.3-27.73,21.97-7.07,8.82-11.89,18.13-14.68,28.1-2.82,9.68-4.49,18.5-5,26.26h178.18c-2.61-27.91-12.17-48.56-25.24-63.08-13.01-14.4-35.06-22.2-61.95-22.2Z"/>
</svg>