<?xml version="1.0" encoding="UTF-8"?>
<svg id="Camada_1" data-name="Camada 1" xmlns="http://www.w3.org/2000/svg" viewBox="0 0 1080 1080">
  <defs>
    <style>
      .cls-1 {
        fill: #fff;
      }
    </style>
  </defs>
  <path class="cls-1" d="m892.77-.02H187.24C83.83-.02,0,83.81,0,187.23v705.53c0,103.41,83.83,187.25,187.25,187.25h198.66c9.8-3.29,19.11-12.18,20.37-33.72,0,0-5.53-50.94-4.9-109.36-167.48,33.46-197.65-61.05-197.65-61.05-33.52-81.02-74.03-101.97-74.03-101.97-51.68-32.13,0-36.32,0-36.32,64.26-4.19,111.75,82.41,111.75,82.41,60.58,70.5,136.79,46.32,166.31,32.94,6.54-39.75,19.07-72.76,41.82-83.23,0,0-254.23-11.17-277.97-240.26,0,0-27.94-132.7,60.06-226.29,0,0-32.13-72.64,5.59-162.03,0,0,46.1-16.76,166.23,64.26,0,0,131.3-48.89,307.31,0,0,0,77.68-64.33,166.65-65.69,0,0,40.08,95.02,5.16,164.87,0,0,90.8,68.45,55.87,244.45,0,0-6.98,194.16-270.99,220.7,0,0,62.86,22.35,40.51,279.37,0,0-.74,24.37,20.24,30.92h164.53c103.41,0,187.25-83.83,187.25-187.25V187.23C1080.01,83.81,996.18-.02,892.77-.02Z"/>
</svg>