<?xml version="1.0" encoding="UTF-8"?>
<svg id="Camada_1" data-name="Camada 1" xmlns="http://www.w3.org/2000/svg" viewBox="0 0 1080 1080">
  <defs>
    <style>
      .cls-1 {
        fill: #fff;
      }
    </style>
  </defs>
  <path class="cls-1" d="m892.77-.34H187.31C83.91-.34.09,83.49.09,186.89v705.46c0,103.4,83.82,187.23,187.23,187.23h705.46c103.4,0,187.23-83.83,187.23-187.23V186.89C1080,83.49,996.18-.34,892.77-.34Zm-250.77,400.63l88.44,88.76-.13-178.13,53.2-52.13-2.13,355.98-177.85-176.93,38.47-37.55Zm-50.01,50.01l210.67,211.73V239.63l53.2-53.2v605.23l-303.6-302.61,39.74-38.75Zm-156.4,231.94l-88.73-88.52,3.61,172.57-55.33,53.57v-353.61l178.75,176.62-38.3,39.37Zm51.07-50.01l-211.73-214.92v423.78l-53.2,56.07V290.29l302.17,301.52-37.24,40.43Zm443.67,335.05L202.59,242.82v671.9l-52.84,52.56V111.96l724.2,726.69,1.06-671.36,55.33-55.33v855.33Z"/>
</svg>