<?xml version="1.0" encoding="UTF-8"?>
<svg id="Camada_1" data-name="Camada 1" xmlns="http://www.w3.org/2000/svg" viewBox="0 0 1080 1080">
  <defs>
    <style>
      .cls-1 {
        fill: #fff;
      }
    </style>
  </defs>
  <path class="cls-1" d="m893.21.23H187.78C84.38.23.56,84.05.56,187.45v705.43c0,103.4,83.82,187.22,187.22,187.22h705.43c103.4,0,187.22-83.82,187.22-187.22V187.45C1080.43,84.05,996.61.23,893.21.23ZM250.34,271.91l577.14.04c55.77-1.19,69.18,22.55,69.18,22.55l-305.53,246.29c-50.04,56.43-100.29,0-100.29,0l-306.51-246.29c14.24-21.36,66-22.59,66-22.59Zm596.88,536.5H235.96s-72.23-4.8-74.6-76.56v-373.16l316.82,248s65.06,47.46,129.24,0l312.18-252.75v381.62s4.01,72.85-72.38,72.85Z"/>
</svg>