<?xml version="1.0" encoding="UTF-8"?>
<svg id="Camada_1" data-name="Camada 1" xmlns="http://www.w3.org/2000/svg" viewBox="0 0 1080 1080">
  <defs>
    <style>
      .cls-1 {
        fill: #fff;
      }
    </style>
  </defs>
  <path class="cls-1" d="m892.6.24H187.4C84.04.24.24,84.04.24,187.4v705.2c0,103.37,83.79,187.16,187.16,187.16h705.2c103.37,0,187.16-83.79,187.16-187.16V187.4C1079.76,84.04,995.96.24,892.6.24ZM361.66,856.69c0,3.17-2.57,5.74-5.74,5.74h-119.02c-3.17,0-5.74-2.57-5.74-5.74v-415.89c0-3.17,2.57-5.74,5.74-5.74h119.02c3.17,0,5.74,2.57,5.74,5.74v415.89Zm-66.88-487.96c-41.74,0-75.58-33.84-75.58-75.58s33.84-75.58,75.58-75.58,75.58,33.84,75.58,75.58-33.84,75.58-75.58,75.58Zm566.01,487.65c0,3.34-2.71,6.05-6.05,6.05h-119.48c-3.34,0-6.05-2.71-6.05-6.05v-249.57c-21.47-74.47-79.38-67.35-79.38-67.35-60.26,8.26-70.39,72.54-71.77,103.04v213.88c0,3.34-2.71,6.05-6.05,6.05h-123.83c-3.34,0-6.05-2.71-6.05-6.05v-415.26c0-3.34,2.71-6.05,6.05-6.05h123.83c3.34,0,6.05,2.71,6.05,6.05v42.77c48.67-69.69,133.76-61.87,133.76-61.87,138.74-5.06,148.28,144.58,148.93,165.17.03.24.05.48.05.73v268.46Z"/>
</svg>